# xmcd
#
# Track frame offsets:
#	300
#	18933
#	38628
#	55419
#	71798
#	93461
#	114211
#	133897
#	148739
#	165393
#	181736
#	198786
#
# Disc length: 2958 seconds
#
# Revision: 1
# Processed by: cddbd v1.5.2PL0 Copyright (c) Steve Scherf et al.
# Submitted via: audiograbber 1.83.01
#
DISCID=a10b8a0c
DTITLE=Cdpool - Street March 07 CD2
DYEAR=2007
DGENRE=R&B
TTITLE0=Fergie Ft Ludacris - Glamorous
TTITLE1=Bucky Johnson Ft H20, Keith Gamble and Skoob - Oh No!
TTITLE2=Kidz In The Hall - Wheels Fall Off
TTITLE3=First Productions Ft Charlie Brown and Yungun - That Girl
TTITLE4=DJ Vadim - Like The Wind
TTITLE5=Judah and Secret Ft David Fisher - Queen For Life
TTITLE6=Durrty Goodz - Fun In The Slums
TTITLE7=Mic Perri - Got Me Freakin' Out
TTITLE8=Jus' Joseph Ft Tense MC - Pushin'
TTITLE9=EL:Marshall - Running Back
TTITLE10=Asher D - Andrea
TTITLE11=Royal Priesthood - Champions
EXTD=
EXTT0=
EXTT1=
EXTT2=
EXTT3=
EXTT4=
EXTT5=
EXTT6=
EXTT7=
EXTT8=
EXTT9=
EXTT10=
EXTT11=
PLAYORDER=
